<svg id="Layer_1" data-name="Layer 1" xmlns="http://www.w3.org/2000/svg" viewBox="0 0 400 100"><defs><style>.cls-1,.cls-2{fill:#fff;}.cls-1{fill-rule:evenodd;}</style></defs><title>CleanSteet</title><path id="SVGID" class="cls-1" d="M358,37.71V31.18h5.71V21.73h8v9.45h8.16v6.53h-8.16V52.88a7.44,7.44,0,0,0,.78,3.6q.78,1.43,3.5,1.43a10.11,10.11,0,0,0,1.77-.17,7.13,7.13,0,0,0,1.7-.51l.27,6.39a13.4,13.4,0,0,1-2.58.65,18.19,18.19,0,0,1-2.86.24,13,13,0,0,1-5.31-.92,8,8,0,0,1-3.23-2.52,9.32,9.32,0,0,1-1.63-3.67,21.37,21.37,0,0,1-.44-4.46V37.71Zm-3.2,10.2V49a8.79,8.79,0,0,1-.07,1.09H329.88a8.08,8.08,0,0,0,.92,3.23,8.23,8.23,0,0,0,2.07,2.52,10.33,10.33,0,0,0,2.92,1.67,9.61,9.61,0,0,0,3.4.61A10.89,10.89,0,0,0,344.37,57a9.68,9.68,0,0,0,3.47-3.09l5.44,4.35q-4.83,6.53-14,6.53a19.93,19.93,0,0,1-7-1.19,16.53,16.53,0,0,1-5.54-3.37A15.17,15.17,0,0,1,323,54.89a18.4,18.4,0,0,1-1.33-7.18A18.72,18.72,0,0,1,323,40.54a16,16,0,0,1,9.11-9A18.33,18.33,0,0,1,339,30.23a17.23,17.23,0,0,1,6.29,1.12,13.64,13.64,0,0,1,5,3.33,15.46,15.46,0,0,1,3.3,5.51A22.73,22.73,0,0,1,354.77,47.92Zm-8.16-3.67a10.06,10.06,0,0,0-.44-3A6.67,6.67,0,0,0,342.36,37a8.44,8.44,0,0,0-3.43-.65,9.17,9.17,0,0,0-6.22,2.21,8.06,8.06,0,0,0-2.82,5.68Zm-30.88,3.67V49a8.78,8.78,0,0,1-.07,1.09H290.84a8.09,8.09,0,0,0,.92,3.23,8.23,8.23,0,0,0,2.07,2.52,10.33,10.33,0,0,0,2.92,1.67,9.61,9.61,0,0,0,3.4.61A10.89,10.89,0,0,0,305.33,57a9.68,9.68,0,0,0,3.47-3.09l5.44,4.35q-4.83,6.53-14,6.53a19.93,19.93,0,0,1-7-1.19,16.53,16.53,0,0,1-5.54-3.37A15.18,15.18,0,0,1,284,54.89a18.41,18.41,0,0,1-1.33-7.18A18.73,18.73,0,0,1,284,40.54a16,16,0,0,1,9.11-9A18.33,18.33,0,0,1,300,30.23a17.23,17.23,0,0,1,6.29,1.12,13.64,13.64,0,0,1,5,3.33,15.46,15.46,0,0,1,3.3,5.51A22.73,22.73,0,0,1,315.73,47.92Zm-8.16-3.67a10.07,10.07,0,0,0-.44-3A6.67,6.67,0,0,0,303.32,37a8.45,8.45,0,0,0-3.43-.65,9.17,9.17,0,0,0-6.22,2.21,8.06,8.06,0,0,0-2.82,5.68ZM259.82,31.18h7.82v5.44h.14A11.91,11.91,0,0,1,271.59,32a9.5,9.5,0,0,1,5.71-1.77q.48,0,1,0a3.76,3.76,0,0,1,1,.17v7.48a11.38,11.38,0,0,0-1.39-.27,9.64,9.64,0,0,0-1.12-.07,8.66,8.66,0,0,0-4.49,1A8.16,8.16,0,0,0,269.62,41,8.77,8.77,0,0,0,268.32,44a11.38,11.38,0,0,0-.34,2.38V63.83h-8.16ZM232,37.71V31.18h5.71V21.73h8v9.45h8.16v6.53h-8.16V52.88a7.44,7.44,0,0,0,.78,3.6q.78,1.43,3.5,1.43a10.11,10.11,0,0,0,1.77-.17,7.13,7.13,0,0,0,1.7-.51l.27,6.39a13.4,13.4,0,0,1-2.58.65,18.19,18.19,0,0,1-2.86.24,13,13,0,0,1-5.31-.92,8,8,0,0,1-3.23-2.52,9.32,9.32,0,0,1-1.63-3.67,21.36,21.36,0,0,1-.44-4.46V37.71Zm-7.62,2.18a9.42,9.42,0,0,0-3-2.48,8.43,8.43,0,0,0-4.15-1.05,8,8,0,0,0-3.6.82A2.81,2.81,0,0,0,212,39.89a2.73,2.73,0,0,0,1.8,2.69,33,33,0,0,0,5.27,1.6,29.72,29.72,0,0,1,3.71,1.09,13.52,13.52,0,0,1,3.4,1.8,8.88,8.88,0,0,1,2.48,2.79,8,8,0,0,1,1,4A10.53,10.53,0,0,1,228.5,59a9.54,9.54,0,0,1-3,3.37,12.6,12.6,0,0,1-4.35,1.87,22.56,22.56,0,0,1-5.14.58,20.39,20.39,0,0,1-7.41-1.39,15.68,15.68,0,0,1-6-4l5.37-5a10.73,10.73,0,0,0,3.54,2.92,10.13,10.13,0,0,0,4.83,1.16,8.29,8.29,0,0,0,1.8-.2,6.14,6.14,0,0,0,1.7-.65,3.52,3.52,0,0,0,1.26-1.19,3.35,3.35,0,0,0,.48-1.84,3,3,0,0,0-1.87-2.92,30.15,30.15,0,0,0-5.61-1.77,27,27,0,0,1-3.57-1.05,11.65,11.65,0,0,1-3.09-1.7,7.88,7.88,0,0,1-2.18-2.62,8.32,8.32,0,0,1-.82-3.88,9.34,9.34,0,0,1,1.12-4.69,9.63,9.63,0,0,1,3-3.23,13.29,13.29,0,0,1,4.15-1.87,18.53,18.53,0,0,1,4.76-.61,20.05,20.05,0,0,1,6.9,1.22,11.66,11.66,0,0,1,5.34,3.74ZM149.9,31.18h7.75v5.24h.14a10.56,10.56,0,0,1,3.77-4.32,10.85,10.85,0,0,1,6.36-1.87,12.28,12.28,0,0,1,5.48,1.12,10.79,10.79,0,0,1,3.74,3,12,12,0,0,1,2.14,4.22,17.74,17.74,0,0,1,.68,4.9V63.83h-8.16V45.74a23.16,23.16,0,0,0-.2-3,8.07,8.07,0,0,0-.88-2.82,5.86,5.86,0,0,0-1.87-2.07,5.5,5.5,0,0,0-3.16-.82,7,7,0,0,0-3.4.78,7.22,7.22,0,0,0-2.35,2,8.88,8.88,0,0,0-1.39,2.82,11.26,11.26,0,0,0-.48,3.23v18H149.9ZM132.63,48.94h-1.84q-2,0-4.15.17a18,18,0,0,0-4,.75,8.57,8.57,0,0,0-3.06,1.63,3.61,3.61,0,0,0-1.22,2.89,3.48,3.48,0,0,0,.51,1.94,3.91,3.91,0,0,0,1.33,1.26,5.92,5.92,0,0,0,1.84.68,10.38,10.38,0,0,0,2,.2q4.22,0,6.39-2.24a8.42,8.42,0,0,0,2.18-6.12Zm.14,10.75h-.2a9.11,9.11,0,0,1-3.95,3.57,13.38,13.38,0,0,1-6.19,1.39,17.76,17.76,0,0,1-4.12-.51,12.26,12.26,0,0,1-3.95-1.7,9.89,9.89,0,0,1-3-3.13,9,9,0,0,1-1.19-4.8,8.13,8.13,0,0,1,2.07-5.85,13.41,13.41,0,0,1,5.34-3.33,30.09,30.09,0,0,1,7.24-1.53q4-.37,7.79-.37v-.82a5,5,0,0,0-2.21-4.52,9.33,9.33,0,0,0-5.27-1.46,11.81,11.81,0,0,0-5,1.09,13.36,13.36,0,0,0-3.95,2.65l-4.22-5a18.42,18.42,0,0,1,6.43-3.88,21.91,21.91,0,0,1,7.38-1.29A18.14,18.14,0,0,1,133,31.46a11.68,11.68,0,0,1,4.46,3.2,11.44,11.44,0,0,1,2.28,4.42,19.12,19.12,0,0,1,.65,4.9V63.83h-7.62ZM104.6,47.92V49a8.77,8.77,0,0,1-.07,1.09H79.71a8.09,8.09,0,0,0,.92,3.23,8.23,8.23,0,0,0,2.07,2.52,10.33,10.33,0,0,0,2.92,1.67,9.61,9.61,0,0,0,3.4.61A10.89,10.89,0,0,0,94.2,57a9.68,9.68,0,0,0,3.47-3.09l5.44,4.35q-4.83,6.53-14,6.53a19.93,19.93,0,0,1-7-1.19,16.53,16.53,0,0,1-5.54-3.37,15.18,15.18,0,0,1-3.67-5.34,18.41,18.41,0,0,1-1.33-7.18,18.73,18.73,0,0,1,1.33-7.18,16,16,0,0,1,9.11-9,18.33,18.33,0,0,1,6.84-1.26,17.23,17.23,0,0,1,6.29,1.12,13.64,13.64,0,0,1,5,3.33,15.46,15.46,0,0,1,3.3,5.51A22.73,22.73,0,0,1,104.6,47.92Zm-8.16-3.67a10.06,10.06,0,0,0-.44-3A6.67,6.67,0,0,0,92.19,37a8.45,8.45,0,0,0-3.43-.65,9.17,9.17,0,0,0-6.22,2.21,8.06,8.06,0,0,0-2.82,5.68ZM55.36,12.41h8.16V63.83H55.36Zm-11,27.82A7.2,7.2,0,0,0,41.48,38,8.84,8.84,0,0,0,37.61,37a8.18,8.18,0,0,0-3.95.92,8.57,8.57,0,0,0-2.82,2.41,10.4,10.4,0,0,0-1.67,3.37,13.45,13.45,0,0,0-.54,3.77,12.72,12.72,0,0,0,.58,3.78,10.55,10.55,0,0,0,1.73,3.37,8.81,8.81,0,0,0,2.89,2.41,8.52,8.52,0,0,0,4,.92,10.35,10.35,0,0,0,3.81-.75,7.26,7.26,0,0,0,3.06-2.18l5.1,5.17a13.53,13.53,0,0,1-5.2,3.37,19.25,19.25,0,0,1-6.84,1.19A20.13,20.13,0,0,1,31,63.63a15.95,15.95,0,0,1-9.45-8.84,18,18,0,0,1-1.39-7.28,17.68,17.68,0,0,1,1.39-7.14,16.37,16.37,0,0,1,3.77-5.44,16.87,16.87,0,0,1,5.54-3.47,18.92,18.92,0,0,1,13.74.14,13.17,13.17,0,0,1,5.34,3.74Z"/><rect class="cls-2" x="144.45" y="77.83" width="35.8" height="9.76"/><rect class="cls-2" x="103.12" y="77.83" width="35.8" height="9.76"/><rect class="cls-2" x="61.78" y="77.83" width="35.8" height="9.76"/><rect class="cls-2" x="20.45" y="77.83" width="35.8" height="9.76"/></svg>