<svg id="Layer_1" data-name="Layer 1" xmlns="http://www.w3.org/2000/svg" viewBox="0 0 100 100"><defs><style>.cls-1{fill:#fff;}</style></defs><title>Icon</title><g id="V9TLbw.tif"><path class="cls-1" d="M31.08,65.91a3.14,3.14,0,0,1,0,2.13,2.69,2.69,0,0,1-.55.91,2.8,2.8,0,0,1-.88.63A2.8,2.8,0,0,1,26.43,69a2.69,2.69,0,0,1-.55-.91,3.14,3.14,0,0,1,0-2.13,2.68,2.68,0,0,1,.55-.91,2.74,2.74,0,0,1,.88-.63,3,3,0,0,1,2.33,0,2.8,2.8,0,0,1,.88.63A2.68,2.68,0,0,1,31.08,65.91Z"/><path class="cls-1" d="M45.5,65.91A2.63,2.63,0,0,0,45,65a2.89,2.89,0,0,0-3.21-.63,2.74,2.74,0,0,0-.88.63,2.64,2.64,0,0,0-.55.91,3.1,3.1,0,0,0,0,2.13,2.65,2.65,0,0,0,.55.91,2.89,2.89,0,0,0,3.21.63A2.78,2.78,0,0,0,45,69,2.64,2.64,0,0,0,45.5,68a3.1,3.1,0,0,0,0-2.13Zm12.86-1.53a2.44,2.44,0,0,0-1.76-.6,2.31,2.31,0,0,0-1.69.61A2.73,2.73,0,0,0,54.15,66H59A2.23,2.23,0,0,0,58.36,64.38Zm0,0a2.44,2.44,0,0,0-1.76-.6,2.31,2.31,0,0,0-1.69.61A2.73,2.73,0,0,0,54.15,66H59A2.23,2.23,0,0,0,58.36,64.38ZM45.5,65.91A2.63,2.63,0,0,0,45,65a2.89,2.89,0,0,0-3.21-.63,2.74,2.74,0,0,0-.88.63,2.64,2.64,0,0,0-.55.91,3.1,3.1,0,0,0,0,2.13,2.65,2.65,0,0,0,.55.91,2.89,2.89,0,0,0,3.21.63A2.78,2.78,0,0,0,45,69,2.64,2.64,0,0,0,45.5,68a3.1,3.1,0,0,0,0-2.13Zm46-12.82a4,4,0,0,0-.63-2.27A4.09,4.09,0,0,0,87.12,49Q68.56,49,50,49H13.23c-.34,0-.69,0-1,0a3.87,3.87,0,0,0-3.69,3.86c0,9.26,0,18.53,0,27.79a4.37,4.37,0,0,0,.59,2c.83,1.51,2.27,1.92,3.9,1.92H87.53a3.94,3.94,0,0,0,4-4.17Q91.49,66.75,91.5,53.1ZM33.23,69a4.7,4.7,0,0,1-2.74,2.58,5.87,5.87,0,0,1-4,0A4.72,4.72,0,0,1,23.72,69a5.39,5.39,0,0,1,0-4.09,4.72,4.72,0,0,1,2.74-2.58,5.87,5.87,0,0,1,4,0,4.82,4.82,0,0,1,1.64,1,4.75,4.75,0,0,1,1.1,1.57,5.36,5.36,0,0,1,0,4.09Zm14.5-.09a4.8,4.8,0,0,1-.94,1.58,4.29,4.29,0,0,1-1.45,1.06,4.47,4.47,0,0,1-1.86.38,4.66,4.66,0,0,1-1.19-.14,4.15,4.15,0,0,1-.91-.36,3.62,3.62,0,0,1-.67-.46,3.19,3.19,0,0,1-.46-.49H40.2v5.71H37.83v-14h2.25v1.42h0a3.06,3.06,0,0,1,1.38-1.27,4.5,4.5,0,0,1,1.88-.4,4.76,4.76,0,0,1,2,.39,4.38,4.38,0,0,1,1.48,1.06A4.51,4.51,0,0,1,47.75,65a6,6,0,0,1,.32,2A5.56,5.56,0,0,1,47.73,68.94Zm13.66-1.13H54.15A2.41,2.41,0,0,0,55,69.47a2.59,2.59,0,0,0,1.72.59,2.86,2.86,0,0,0,1.49-.37,4.17,4.17,0,0,0,1.06-.92l1.7,1.28a4.83,4.83,0,0,1-1.86,1.46,5.49,5.49,0,0,1-2.15.43,5.66,5.66,0,0,1-2-.36A4.72,4.72,0,0,1,52.18,69a5.36,5.36,0,0,1,0-4.09,4.76,4.76,0,0,1,1.1-1.57,4.84,4.84,0,0,1,1.64-1,5.66,5.66,0,0,1,2-.36,4.6,4.6,0,0,1,1.81.35,3.88,3.88,0,0,1,1.41,1A4.61,4.61,0,0,1,61.06,65a6.83,6.83,0,0,1,.33,2.2Zm12.84,3.91H71.86v-4.8c0-.26,0-.56,0-.88a3.2,3.2,0,0,0-.21-.91,1.7,1.7,0,0,0-.52-.71,1.51,1.51,0,0,0-1-.29,2.27,2.27,0,0,0-1,.2,1.92,1.92,0,0,0-.67.53,2.13,2.13,0,0,0-.39.77,3.42,3.42,0,0,0-.12.91v5.18H65.57V62.24h2.25v1.52h0a3.31,3.31,0,0,1,1-1.24A3,3,0,0,1,70.77,62a3.74,3.74,0,0,1,1.61.32,3.05,3.05,0,0,1,1.08.83,3.17,3.17,0,0,1,.59,1.19,5.47,5.47,0,0,1,.18,1.4ZM56.6,63.78a2.31,2.31,0,0,0-1.69.61A2.73,2.73,0,0,0,54.15,66H59a2.23,2.23,0,0,0-.65-1.65A2.44,2.44,0,0,0,56.6,63.78ZM45,65a2.89,2.89,0,0,0-3.21-.63,2.74,2.74,0,0,0-.88.63,2.64,2.64,0,0,0-.55.91,3.1,3.1,0,0,0,0,2.13,2.65,2.65,0,0,0,.55.91,2.89,2.89,0,0,0,3.21.63A2.78,2.78,0,0,0,45,69,2.64,2.64,0,0,0,45.5,68a3.1,3.1,0,0,0,0-2.13A2.63,2.63,0,0,0,45,65Zm.55.91A2.63,2.63,0,0,0,45,65a2.89,2.89,0,0,0-3.21-.63,2.74,2.74,0,0,0-.88.63,2.64,2.64,0,0,0-.55.91,3.1,3.1,0,0,0,0,2.13,2.65,2.65,0,0,0,.55.91,2.89,2.89,0,0,0,3.21.63A2.78,2.78,0,0,0,45,69,2.64,2.64,0,0,0,45.5,68a3.1,3.1,0,0,0,0-2.13Zm0,0A2.63,2.63,0,0,0,45,65a2.89,2.89,0,0,0-3.21-.63,2.74,2.74,0,0,0-.88.63,2.64,2.64,0,0,0-.55.91,3.1,3.1,0,0,0,0,2.13,2.65,2.65,0,0,0,.55.91,2.89,2.89,0,0,0,3.21.63A2.78,2.78,0,0,0,45,69,2.64,2.64,0,0,0,45.5,68a3.1,3.1,0,0,0,0-2.13Z"/><path class="cls-1" d="M56.91,22.29A6.91,6.91,0,1,1,50,15.41,6.89,6.89,0,0,1,56.91,22.29Z"/><path class="cls-1" d="M40,26.85l2.28,3.26-8.14,6.09q-5.68,4.25-11.37,8.49A1.93,1.93,0,0,1,21.7,45c-1.91,0-3.82,0-5.79-.13Z"/><path class="cls-1" d="M84,45.05a33.67,33.67,0,0,0-3.66,0,6.32,6.32,0,0,1-4.79-1.57C69.83,39.07,64,34.76,58.16,30.41l-.4-.31L60,26.85,84.09,44.91Z"/></g></svg>