<svg id="Layer_1" data-name="Layer 1" xmlns="http://www.w3.org/2000/svg" viewBox="0 0 100 100"><defs><style>.cls-1{fill:#fff;}</style></defs><title>Icon</title><g id="kN5Q5n.tif"><path class="cls-1" d="M23.81,25.49h52.4c-.12,2-.24,4-.36,6q-.53,8.37-1.08,16.74-.63,9.75-1.25,19.5c-.29,4.52-.71,9-.82,13.57a6.2,6.2,0,0,1-6.65,6.32c-6.71,0-13.41,0-20.12,0H34a6.5,6.5,0,0,1-5.06-2,5.46,5.46,0,0,1-1.5-3.44c-.41-6.26-.79-12.51-1.18-18.77q-.69-10.89-1.4-21.78-.5-7.84-1-15.68C23.81,25.8,23.81,25.69,23.81,25.49Z"/><path class="cls-1" d="M37.68,16.75l.42-2.58a1.75,1.75,0,0,1,2-1.75c2.06,0,4.13,0,6.19,0H59.9c1.58,0,2,.3,2.25,1.83.15.8.29,1.6.45,2.49h15c1.74,0,2.42.68,2.43,2.39,0,.62,0,1.25,0,1.87a1.84,1.84,0,0,1-1.56,1.81,5.77,5.77,0,0,1-1.05.08q-27.36,0-54.73,0c-1.6,0-2.8-.61-2.63-2.64,0-.49,0-1,0-1.47a1.92,1.92,0,0,1,2.1-2.06c2.28,0,4.56,0,6.84,0Z"/></g></svg>