<svg id="Layer_1" data-name="Layer 1" xmlns="http://www.w3.org/2000/svg" viewBox="0 0 100 100"><defs><style>.cls-1{fill:#fff;}</style></defs><title>Icon</title><g id="_6RiqmL.tif" data-name="6RiqmL.tif"><path class="cls-1" d="M23.3,38.91a26.74,26.74,0,0,1,53-4.78,25.61,25.61,0,0,1-1.69,14.5,97.1,97.1,0,0,1-9,17.54C61.15,73,56.48,79.61,51.88,86.28c-1.1,1.59-2.49,1.61-3.61.11C40.38,75.81,32.94,64.94,27.31,53c-1.94-4.13-3.65-8.36-3.95-13C23.33,39.52,23.31,39.1,23.3,38.91Zm37,1.73A10.27,10.27,0,1,0,50,50.83,10.25,10.25,0,0,0,60.29,40.64Z"/></g></svg>