<svg id="Layer_1" data-name="Layer 1" xmlns="http://www.w3.org/2000/svg" viewBox="0 0 100 100"><defs><style>.cls-1{fill:#fff;}</style></defs><title>Icon</title><path class="cls-1" d="M75.24,28.26a14.79,14.79,0,0,1-2.15,2.36A99.21,99.21,0,0,0,55.64,51.19a145.41,145.41,0,0,0-11.4,22.1,7.19,7.19,0,0,1-.61,1.29,1.28,1.28,0,0,1-2.19,0,7.43,7.43,0,0,1-.54-.92c-4.35-7.71-9.18-15.08-15.85-21a2.13,2.13,0,0,1-.69-2.36,2.53,2.53,0,0,1,2.2-1.91,7.44,7.44,0,0,1,2.69.11,61.68,61.68,0,0,1,6,2.06c1.94.79,3.8,1.75,5.86,2.71,3.24-3.61,6.5-7.21,9.74-10.85A124.39,124.39,0,0,1,66.48,27.83,29,29,0,0,1,72,25a3.29,3.29,0,0,1,1.53-.16A2.07,2.07,0,0,1,75.24,28.26Z"/></svg>