<svg id="Layer_1" data-name="Layer 1" xmlns="http://www.w3.org/2000/svg" viewBox="0 0 100 100"><defs><style>.cls-1{fill:#fff;}</style></defs><title>Icon</title><g id="_0jP446.tif" data-name="0jP446.tif"><path class="cls-1" d="M79.18,13.37a5,5,0,0,0-4.27-1.87h-37v77H74.7a10.48,10.48,0,0,0,1.35-.07,4.53,4.53,0,0,0,4-3.58A8.31,8.31,0,0,0,80.15,83V16.5A5,5,0,0,0,79.18,13.37ZM62,38.76a4.43,4.43,0,0,1-.51,0,3.17,3.17,0,0,0-3,3c0,5.22,0,10.43,0,15.65a4,4,0,0,0,1.7,3c.41.34,1.14.3,1.78.46V78.43c-1.39.12-2.78.17-3.92-.83A13.51,13.51,0,0,1,56,75.48a31.93,31.93,0,0,1-4.54-9.75,54.41,54.41,0,0,1-2.6-15.37A51.37,51.37,0,0,1,52,32a25.89,25.89,0,0,1,4.09-7.81,12.94,12.94,0,0,1,2.15-2c1.09-.82,2.38-.71,3.72-.65Zm6.19,36.45a3.73,3.73,0,0,1-.56,1.49c-.15.28-.46.47-.64.73-.79,1.14-1.91,1.14-3.14,1V60.92c2-.54,3.09.62,4.09,2a1.83,1.83,0,0,1,.26,1C68.22,67.68,68.24,71.44,68.19,75.21Zm0-39.31a2.35,2.35,0,0,1-.77,1.72,3.6,3.6,0,0,1-3.6,1.1V21.57a3.27,3.27,0,0,1,3.21,1,4.29,4.29,0,0,1,1.19,3.12C68.16,29.1,68.2,32.5,68.22,35.91Z"/><path class="cls-1" d="M29,11.51l-.71,0a4.77,4.77,0,0,0-4.43,4.8c0,.71,0,1.42,0,2.14v2.85c-.92,0-1.75,0-2.57,0a1.44,1.44,0,0,0-1.44,1.46,1.51,1.51,0,0,0,1.59,1.69c.79,0,1.58,0,2.37,0V32c-.4,0-.76,0-1.11,0a12.67,12.67,0,0,0-1.84.14,1.41,1.41,0,0,0-1,1.52c0,.69.45,1.4,1,1.45,1,.09,2.06,0,3.17,0v-3c1,0,1.88,0,2.76.14A1.39,1.39,0,0,1,28,33.73c0,1-.57,1.62-1.7,1.67-.8,0-1.6,0-2.47,0v.86c0,2,0,4,0,6,0,.52-.15.71-.68.68a15.71,15.71,0,0,0-2.14.07,1.41,1.41,0,0,0-1.2,1.38,1.39,1.39,0,0,0,1,1.6c1,.15,2.1.14,3.19.19V43.13c.94,0,1.78,0,2.6,0A1.35,1.35,0,0,1,27.9,44a1.57,1.57,0,0,1-1.45,2.25c-.85,0-1.69,0-2.6,0v7.55c-.42,0-.78,0-1.13,0a12.77,12.77,0,0,0-1.84.13A1.57,1.57,0,0,0,21,57c1,.08,2,0,3.1,0v-2.9c1,0,1.88-.07,2.76,0A1.38,1.38,0,0,1,28,55.6c0,1-.61,1.57-1.76,1.62-.78,0-1.55,0-2.42,0V64.8c-1,0-1.85,0-2.71,0a1.41,1.41,0,0,0-1.3,1.45A1.38,1.38,0,0,0,21,67.84c1,.1,2,0,3.09,0V64.93h2.07a1.16,1.16,0,0,1,.55,0,3,3,0,0,1,1.16.83,1.54,1.54,0,0,1-1.38,2.31c-.85,0-1.69,0-2.61,0v7.39H22.58c-.43,0-.85,0-1.28,0a1.47,1.47,0,0,0-1.44,1.41c-.07.77.35,1.59,1,1.66,1,.1,2.06,0,3.18,0V75.82a19.86,19.86,0,0,1,2.29,0,2.2,2.2,0,0,1,1.3.57,1.53,1.53,0,0,1-1,2.56,26.77,26.77,0,0,1-2.8,0c0,1.68,0,3.2,0,4.71a4.57,4.57,0,0,0,4.42,4.75c2,.11,4,0,6.1,0v-77Zm-2.35,13c-.84.06-1.69,0-2.6,0V21.36a28.68,28.68,0,0,1,2.9,0,1.58,1.58,0,0,1-.29,3.07Z"/></g></svg>