<svg id="Layer_1" data-name="Layer 1" xmlns="http://www.w3.org/2000/svg" viewBox="0 0 100 100"><defs><style>.cls-1{fill:#fff;}</style></defs><title>Icon</title><g id="UVPku9.tif"><path class="cls-1" d="M80.57,15H19.43A4.43,4.43,0,0,0,15,19.43V80.57A4.43,4.43,0,0,0,19.43,85H80.57A4.43,4.43,0,0,0,85,80.57V19.43A4.43,4.43,0,0,0,80.57,15ZM70.2,32.7a12.39,12.39,0,0,1-1.72,1.89A79.47,79.47,0,0,0,54.52,51,116.66,116.66,0,0,0,45.4,68.73a5.8,5.8,0,0,1-.5,1,1,1,0,0,1-1.75,0,6.68,6.68,0,0,1-.43-.74C39.25,62.87,35.39,57,30.05,52.21a1.7,1.7,0,0,1-.56-1.89,2,2,0,0,1,1.76-1.53,5.85,5.85,0,0,1,2.15.1,49.38,49.38,0,0,1,4.84,1.65c1.55.63,3,1.4,4.69,2.17,2.59-2.89,5.2-5.78,7.79-8.68A99.45,99.45,0,0,1,63.19,32.36a22.75,22.75,0,0,1,4.43-2.29,2.65,2.65,0,0,1,1.21-.13A1.66,1.66,0,0,1,70.2,32.7Z"/></g></svg>