<svg id="Layer_1" data-name="Layer 1" xmlns="http://www.w3.org/2000/svg" viewBox="0 0 100 100"><defs><style>.cls-1{fill:#fff;}</style></defs><title>Icon</title><g id="HEhov5.tif"><path class="cls-1" d="M89.62,67.34a3.41,3.41,0,0,0-.21-1.18Q84.52,52.93,79.6,39.71c-.28-.77-.57-.93-1.69-.93H62.13l-1.6,2.77H75.09c.63,0,.85.15,1,.58q4,11,7.94,22c.06.15.08.31.14.53H65.95c-1.83,0-2.66.48-3.06,1.76-1.43,4.58-7.63,7.7-14.19,7.15-5.6-.47-9.89-3-11.35-6.59a6.39,6.39,0,0,1-.24-.74c-.23-1-1.15-1.57-2.6-1.58H16.12c0-.2.08-.37.13-.53q3.87-11,7.73-22.07c.15-.43.4-.52,1-.52H39.48l-1.6-2.78H22.13c-1.12,0-1.41.16-1.7.93-3,8-5.94,16.1-9,24.13a15.52,15.52,0,0,0-1.06,5.78c.09,4.59,0,9.19,0,13.78,0,1.12.29,1.32,1.85,1.32H87.94c1.35,0,1.69-.25,1.69-1.22Q89.63,75.41,89.62,67.34Z"/></g><polygon class="cls-1" points="64.09 33.38 60.97 38.78 59.37 41.55 50 57.78 40.64 41.56 39.04 38.78 35.92 33.38 47.51 33.38 47.51 15.28 52.51 15.28 52.51 33.38 64.09 33.38"/></svg>