<svg id="Layer_1" data-name="Layer 1" xmlns="http://www.w3.org/2000/svg" viewBox="0 0 100 100"><defs><style>.cls-1{fill:#fff;}</style></defs><title>Icon</title><g id="JwmSVG.tif"><path class="cls-1" d="M28.15,70.3H16.69c-1.2,0-1.69-.5-1.69-1.68q0-24.19,0-48.37c0-1.2.47-1.69,1.66-1.73H82.78a7.45,7.45,0,0,1,.92,0A1.37,1.37,0,0,1,85,19.95c0,.2,0,.39,0,.59q0,23.89,0,47.78c0,1.58-.4,2-2,2q-21,0-42.06,0a2.19,2.19,0,0,0-1.64.64c-3.59,3.35-7.21,6.66-10.81,10a1.36,1.36,0,0,1-1.73.38,1.48,1.48,0,0,1-.62-1.76C26.79,76.7,27.41,73.86,28,71,28.07,70.83,28.1,70.64,28.15,70.3Z"/></g></svg>