<svg id="Layer_1" data-name="Layer 1" xmlns="http://www.w3.org/2000/svg" viewBox="0 0 100 100"><defs><style>.cls-1{fill:#fff;}</style></defs><title>Icon</title><g id="qA7ZqK.tif"><path class="cls-1" d="M18.15,19l19,19c-.17.2-.34.41-.53.61a4.94,4.94,0,0,0,0,6.63Q45.31,53.95,54,62.58a6.3,6.3,0,0,0,5.24,1.48c.83-.08,1.59-.92,2.47-1.47L81,81.91c-1.41,1.67-2.9,3.25-5.25,3.43a21.67,21.67,0,0,1-4.66,0c-5.66-.82-10.78-3.16-15.79-5.77A84.79,84.79,0,0,1,35.44,65.4,80.2,80.2,0,0,1,18.67,41.55a40.28,40.28,0,0,1-4.11-13.15,19.47,19.47,0,0,1,.19-4.56C15,21.74,16.6,20.42,18.15,19Z"/><path class="cls-1" d="M63.71,60.5c1.59-2.8,4.11-2.73,6.67-2.36a2.87,2.87,0,0,1,1.44.85c4.19,4.15,8.37,8.3,12.48,12.51a5.76,5.76,0,0,1,1,2.26,12.47,12.47,0,0,1,.1,1.52c.39,2.13-.86,3.37-2.36,4.58Z"/><path class="cls-1" d="M39.17,36l-19-19c1.2-1.57,2.5-2.55,4.67-2.42a6.6,6.6,0,0,1,4.75,2.13c3.68,3.84,7.48,7.56,11.26,11.3a3.63,3.63,0,0,1,1,2.75A5.6,5.6,0,0,1,39.17,36Z"/></g></svg>