<svg id="Layer_1" data-name="Layer 1" xmlns="http://www.w3.org/2000/svg" viewBox="0 0 100 100"><defs><style>.cls-1{fill:#fff;}</style></defs><title>Icon</title><g id="nPpZ5j.tif"><path class="cls-1" d="M65.8,28H34.19c.11-.2.18-.36.27-.51,1.56-2.6,3.13-5.2,4.67-7.81a.82.82,0,0,1,.81-.47l20.12,0a.92.92,0,0,1,.68.33c1.66,2.71,3.28,5.44,4.92,8.16C65.7,27.74,65.73,27.81,65.8,28Z"/></g><path class="cls-1" d="M82.77,30.67a8.24,8.24,0,0,0-4.17-.95H50q-14.25,0-28.51,0a10.37,10.37,0,0,0-2.07.16A7.79,7.79,0,0,0,13,37.81q0,17.46,0,34.92a8.26,8.26,0,0,0,.09,1.47,7.89,7.89,0,0,0,8.16,6.64q28.74,0,57.5,0a9.76,9.76,0,0,0,1.88-.14A7.79,7.79,0,0,0,87,73Q87,55.3,87,37.56A7.55,7.55,0,0,0,82.77,30.67ZM50,42.25A12.93,12.93,0,1,1,37.07,55.18,12.94,12.94,0,0,1,50,42.25Z"/></svg>