<svg id="Layer_1" data-name="Layer 1" xmlns="http://www.w3.org/2000/svg" viewBox="0 0 100 100"><defs><style>.cls-1{fill:#fff;}</style></defs><title>Icon</title><path class="cls-1" d="M88.84,29.36c-.06,1.08-.12,2.13-.18,3.18q-.34,5.28-.68,10.55-.39,6.15-.79,12.29-.33,5.09-.65,10.19c-.24,3.86-.47,7.72-.74,11.57a4.91,4.91,0,0,1-4.44,4.34c-.34,0-.68,0-1,0q-13.53,0-27.05,0A6.17,6.17,0,0,1,50.72,81l.2-.11a5.72,5.72,0,0,0,2.82-3.3,10.51,10.51,0,0,0,.49-2.47c.1-1.66.08-3.32.1-5a33.49,33.49,0,0,0-.7-7.28A31.43,31.43,0,0,0,46,47.6q-.33-5.14-.66-10.28-.24-3.79-.47-7.58c0-.11,0-.23,0-.38Z"/><path class="cls-1" d="M56.47,22c.1-.66.21-1.28.29-1.91.18-1.35.58-1.72,1.92-1.72H75.21c1.27,0,1.57.25,1.8,1.51L77.41,22H90c1.41,0,2,.59,2,2,0,.51,0,1,0,1.54a1.61,1.61,0,0,1-1.59,1.62H43.26a1.62,1.62,0,0,1-1.65-1.67c0-.58,0-1.16,0-1.75A1.62,1.62,0,0,1,43.35,22c1.18,0,2.36,0,3.54,0h9.58Z"/><path class="cls-1" d="M52.27,70.14c0,.43,0,.86,0,1.29,0,1.25,0,2.43-.08,3.61a8.54,8.54,0,0,1-.4,2,3.66,3.66,0,0,1-1.87,2.12,9.37,9.37,0,0,1-1,.49,16.9,16.9,0,0,1-3.54,1,68.3,68.3,0,0,1-10.85.9l-1.61,0H28.14v.07l-1.18,0c-2.51-.1-5.11-.21-7.65-.36a29.38,29.38,0,0,1-6.57-1.08,7.57,7.57,0,0,1-3.37-1.73,4,4,0,0,1-1.2-2.66c-.53-6.51-.06-11.42,1.51-15.92a28.6,28.6,0,0,1,8.4-12.75,18.91,18.91,0,0,1,8.35-4.27h4l3.05,0a6.15,6.15,0,0,1,1.54.28,20.16,20.16,0,0,1,9.12,5.62,27.74,27.74,0,0,1,2,2.36,29.81,29.81,0,0,1,5.43,12.26A31.4,31.4,0,0,1,52.27,70.14Z"/><path class="cls-1" d="M20.82,28.71H39.46c-.07.13-.11.23-.17.32q-2.4,3.87-4.8,7.75a.5.5,0,0,1-.5.27H26.27a.59.59,0,0,1-.43-.21Q23.37,32.9,20.94,29C20.9,28.89,20.87,28.82,20.82,28.71Z"/><path class="cls-1" d="M30.17,37.81H34a1.64,1.64,0,1,1,0,3.27q-3.9,0-7.8,0a1.64,1.64,0,1,1,0-3.27Z"/></svg>